<mxfile host="app.diagrams.net" modified="2024-05-06T08:35:36.678Z" agent="Mozilla/5.0 (Windows NT 10.0; Win64; x64) AppleWebKit/537.36 (KHTML, like Gecko) Chrome/124.0.0.0 Safari/537.36 Edg/124.0.0.0" etag="s30F4hl98NpvImy1nr71" version="24.3.0" type="github">
  <diagram name="第 1 页" id="jeTXBLm-H6XMwneKPCaH">
    <mxGraphModel dx="1602" dy="1006" grid="1" gridSize="10" guides="1" tooltips="1" connect="1" arrows="1" fold="1" page="1" pageScale="1" pageWidth="827" pageHeight="1169" math="0" shadow="0">
      <root>
        <mxCell id="0" />
        <mxCell id="1" parent="0" />
        <mxCell id="sWEV5LaynbLMHfX0gyIc-2" value="" style="image;sketch=0;aspect=fixed;html=1;points=[];align=center;fontSize=20;image=img/lib/mscae/Azure_Database_for_MySQL_servers.svg;" parent="1" vertex="1">
          <mxGeometry x="133.98" y="630" width="45.6" height="60" as="geometry" />
        </mxCell>
        <mxCell id="sWEV5LaynbLMHfX0gyIc-13" style="edgeStyle=orthogonalEdgeStyle;rounded=0;orthogonalLoop=1;jettySize=auto;html=1;exitX=0;exitY=0.5;exitDx=0;exitDy=0;exitPerimeter=0;strokeColor=#00FF00;fontSize=20;strokeWidth=2;" parent="1" source="sWEV5LaynbLMHfX0gyIc-5" target="sWEV5LaynbLMHfX0gyIc-12" edge="1">
          <mxGeometry relative="1" as="geometry" />
        </mxCell>
        <mxCell id="sWEV5LaynbLMHfX0gyIc-5" value="" style="sketch=0;aspect=fixed;pointerEvents=1;shadow=0;dashed=0;html=1;strokeColor=none;labelPosition=center;verticalLabelPosition=bottom;verticalAlign=top;align=center;fillColor=#00188D;shape=mxgraph.mscae.enterprise.android_phone;fontSize=20;" parent="1" vertex="1">
          <mxGeometry x="730" y="460" width="54" height="90" as="geometry" />
        </mxCell>
        <mxCell id="sWEV5LaynbLMHfX0gyIc-9" style="edgeStyle=orthogonalEdgeStyle;rounded=0;orthogonalLoop=1;jettySize=auto;html=1;exitX=0.5;exitY=1;exitDx=0;exitDy=0;strokeColor=#FF8000;fontSize=20;strokeWidth=2;" parent="1" source="sWEV5LaynbLMHfX0gyIc-15" target="sWEV5LaynbLMHfX0gyIc-2" edge="1">
          <mxGeometry relative="1" as="geometry">
            <mxPoint x="157" y="540" as="sourcePoint" />
          </mxGeometry>
        </mxCell>
        <mxCell id="sWEV5LaynbLMHfX0gyIc-6" value="" style="sketch=0;aspect=fixed;pointerEvents=1;shadow=0;dashed=0;html=1;strokeColor=none;labelPosition=center;verticalLabelPosition=bottom;verticalAlign=top;align=center;fillColor=#b1ddf0;shape=mxgraph.mscae.enterprise.internet_hollow;fontSize=20;" parent="1" vertex="1">
          <mxGeometry x="60" y="370" width="193.55" height="120" as="geometry" />
        </mxCell>
        <mxCell id="sWEV5LaynbLMHfX0gyIc-12" value="" style="sketch=0;aspect=fixed;pointerEvents=1;shadow=0;dashed=0;html=1;strokeColor=none;labelPosition=center;verticalLabelPosition=bottom;verticalAlign=top;align=center;fillColor=#00188D;shape=mxgraph.mscae.enterprise.internet_hollow;fontSize=20;" parent="1" vertex="1">
          <mxGeometry x="440" y="445" width="193.55" height="120" as="geometry" />
        </mxCell>
        <mxCell id="sWEV5LaynbLMHfX0gyIc-14" value="UCS云" style="text;html=1;align=center;verticalAlign=middle;whiteSpace=wrap;rounded=0;fontSize=20;" parent="1" vertex="1">
          <mxGeometry x="520" y="570" width="80" height="30" as="geometry" />
        </mxCell>
        <mxCell id="sWEV5LaynbLMHfX0gyIc-15" value="DevOps" style="text;html=1;align=center;verticalAlign=middle;whiteSpace=wrap;rounded=0;fontSize=20;" parent="1" vertex="1">
          <mxGeometry x="126.77999999999997" y="490" width="60" height="30" as="geometry" />
        </mxCell>
        <mxCell id="sWEV5LaynbLMHfX0gyIc-16" value="DB" style="text;html=1;align=center;verticalAlign=middle;whiteSpace=wrap;rounded=0;fontSize=20;" parent="1" vertex="1">
          <mxGeometry x="126.77999999999997" y="700" width="60" height="30" as="geometry" />
        </mxCell>
        <mxCell id="sWEV5LaynbLMHfX0gyIc-21" style="edgeStyle=orthogonalEdgeStyle;rounded=0;orthogonalLoop=1;jettySize=auto;html=1;entryX=1.009;entryY=0;entryDx=0;entryDy=0;entryPerimeter=0;strokeColor=#00FF00;fontSize=20;strokeWidth=2;" parent="1" target="sWEV5LaynbLMHfX0gyIc-2" edge="1">
          <mxGeometry relative="1" as="geometry">
            <mxPoint x="437" y="539" as="sourcePoint" />
          </mxGeometry>
        </mxCell>
        <mxCell id="sWEV5LaynbLMHfX0gyIc-26" value="App" style="text;html=1;align=center;verticalAlign=middle;whiteSpace=wrap;rounded=0;fontSize=20;" parent="1" vertex="1">
          <mxGeometry x="730" y="570" width="60" height="30" as="geometry" />
        </mxCell>
        <mxCell id="sWEV5LaynbLMHfX0gyIc-27" value="" style="endArrow=none;html=1;rounded=0;strokeColor=#00FF00;fontSize=20;strokeWidth=2;" parent="1" edge="1">
          <mxGeometry width="50" height="50" relative="1" as="geometry">
            <mxPoint x="481" y="721" as="sourcePoint" />
            <mxPoint x="601" y="721" as="targetPoint" />
          </mxGeometry>
        </mxCell>
        <mxCell id="sWEV5LaynbLMHfX0gyIc-28" value="" style="endArrow=none;html=1;rounded=0;strokeColor=#FF8000;fontSize=20;strokeWidth=2;" parent="1" edge="1">
          <mxGeometry width="50" height="50" relative="1" as="geometry">
            <mxPoint x="480.99999999999994" y="755.58" as="sourcePoint" />
            <mxPoint x="601" y="755.58" as="targetPoint" />
          </mxGeometry>
        </mxCell>
        <mxCell id="sWEV5LaynbLMHfX0gyIc-29" value="由App触发的查询类操作" style="text;html=1;align=center;verticalAlign=middle;whiteSpace=wrap;rounded=0;fontSize=20;" parent="1" vertex="1">
          <mxGeometry x="611" y="701" width="219" height="30" as="geometry" />
        </mxCell>
        <mxCell id="sWEV5LaynbLMHfX0gyIc-30" value="DevOps侧的操作" style="text;html=1;align=center;verticalAlign=middle;whiteSpace=wrap;rounded=0;fontSize=20;" parent="1" vertex="1">
          <mxGeometry x="611" y="741" width="180" height="30" as="geometry" />
        </mxCell>
      </root>
    </mxGraphModel>
  </diagram>
</mxfile>
